#!OML:ASF F:\VICON\USERDATA\INSTALL\rory3\rory3.ASF
:FULLY-SPECIFIED
:DEGREES
788
root -1.04555 18.3902 9.32269 -712.967 -60.1133 -349.56
lowerback 2.17565 -2.3366 -2.15393
upperback -10.3368 -3.91349 -2.5126
thorax -12.4094 -1.96035 -0.998868
lowerneck 1.8293 -19.4009 -17.4475
upperneck 25.6532 -32.5291 14.5125
head 13.8408 -15.7435 3.10174
rclavicle 9.59136e-015 1.43125e-014
rhumerus 393.302 81.2207 -383.843
rradius 91.9916
rwrist -46.7208
rhand 14.0489 4.99045
rfingers 7.12502
rthumb 38.9556 -20.5423
lclavicle 9.59136e-015 1.43125e-014
lhumerus 61.6744 -76.1586 -16.0435
lradius 87.7619
lwrist 48.1184
lhand 21.9584 22.1439
lfingers 7.12502
lthumb 46.3549 45.0892
rfemur -21.5661 10.7829 25.5375
rtibia 27.3028
rfoot 8.89811 -16.5604
rtoes 51.2758
lfemur -75.9345 44.6212 -39.7031
ltibia 80.3922
lfoot 29.257 33.7454
ltoes 18.228
789
root -1.04067 18.3655 9.33812 -712.077 -62.6767 -350.392
lowerback 1.71118 -2.22968 -1.46382
upperback -10.2496 -3.6919 -2.47185
thorax -12.0558 -1.9265 -1.38582
lowerneck 1.56833 -19.1317 -17.2136
upperneck 25.6841 -32.3267 14.9485
head 13.9212 -15.6041 3.24806
rclavicle -7.63333e-014 -1.23246e-014
rhumerus 397.85 80.6547 -379.348
rradius 92.7277
rwrist -47.6628
rhand 13.2509 5.35909
rfingers 7.12502
rthumb 38.2028 -20.3847
lclavicle -7.63333e-014 -1.23246e-014
lhumerus 64.1711 -75.8071 -20.1859
lradius 89.5921
lwrist 48.4484
lhand 21.8182 21.309
lfingers 7.12502
lthumb 46.225 44.3093
rfemur -21.6831 11.3135 26.2653
rtibia 27.2477
rfoot 8.26442 -16.9434
rtoes 51.1625
lfemur -74.2985 43.1158 -37.9056
ltibia 77.3232
lfoot 32.7818 25.1598
ltoes 2.10725
790
root -1.04554 18.3505 9.37244 -711.633 -65.4088 -350.868
lowerback 1.90942 -2.13347 -1.70051
upperback -10.5428 -3.53984 -1.75601
thorax -12.4471 -1.78543 -0.483973
lowerneck 1.50434 -18.7903 -17.8647
upperneck 25.9575 -31.8686 14.8464
head 14.0605 -15.4572 3.37647
rclavicle 9.28324e-014 2.62396e-014
rhumerus 407.763 80.9606 -368.479
rradius 93.6366
rwrist -48.0736
rhand 13.6364 4.78215
rfingers 7.12502
rthumb 38.5666 -20.8606
lclavicle 9.28324e-014 2.62396e-014
lhumerus 63.6608 -76.5762 -20.525
lradius 91.828
lwrist 48.7318
lhand 20.5105 21.75
lfingers 7.12502
lthumb 45.0103 45.2455
rfemur -21.5129 11.3538 26.8034
rtibia 27.1317
rfoot 7.90252 -16.984
rtoes 51.2791
lfemur -72.223 41.8039 -36.2136
ltibia 74.1571
lfoot 31.6244 21.81
ltoes -0.719432
791
root -1.0472 18.3467 9.41929 -711.51 -68.2756 -350.979
lowerback 1.51437 -1.97032 -1.14905
upperback -10.3911 -3.28202 -1.93476
thorax -12.0664 -1.73484 -1.03316
lowerneck 1.06044 -18.4907 -17.0691
upperneck 25.9663 -31.5169 15.0492
head 13.9713 -15.2191 3.41391
rclavicle 1.83876e-015 6.75868e-015
rhumerus 410.57 80.1889 -366.082
rradius 94.2191
rwrist -48.3964
rhand 13.8262 5.06814
rfingers 7.12502
rthumb 38.7456 -20.5243
lclavicle 1.83876e-015 6.75868e-015
lhumerus 63.9073 -76.6116 -22.0691
lradius 92.2603
lwrist 49.0127
lhand 19.6844 22.2488
lfingers 7.12502
lthumb 44.241 46.0412
rfemur -21.3991 11.1547 27.1848
rtibia 27.1038
rfoot 7.87862 -16.9557
rtoes 51.3874
lfemur -70.0291 40.4678 -34.5803
ltibia 70.95
lfoot 32.0231 16.7935
ltoes -8.23474
792
root -1.04737 18.3196 9.46675 -709.741 -71.0349 -352.7
lowerback 1.23426 -1.77829 -0.262877
upperback -10.416 -2.95054 -1.84372
thorax -11.956 -1.66159 -1.4757
lowerneck 0.759401 -18.1177 -16.5207
upperneck 26.0659 -31.089 15.218
head 13.9207 -14.9778 3.4947
rclavicle -7.99114e-014 -3.61788e-014
rhumerus 409.523 79.5373 -365.829
rradius 96.3817
rwrist -48.7848
rhand 14.7476 4.61747
rfingers 7.12502
rthumb 39.614 -20.7239
lclavicle -7.99114e-014 -3.61788e-014
lhumerus 64.6398 -76.8575 -23.9859
lradius 93.1292
lwrist 48.9363
lhand 19.7014 22.5874
lfingers 7.12502
lthumb 44.2568 46.3738
rfemur -21.4976 10.7508 28.1935
rtibia 27.1345
rfoot 8.47708 -16.7445
rtoes 50.2039
lfemur -68.1963 38.9822 -32.415
ltibia 67.8312
lfoot 30.9347 14.028
ltoes -11.0945
793
root -1.06018 18.2873 9.52724 -708.651 -73.7683 -353.649
lowerback 0.642748 -1.26084 0.383287
upperback -10.3307 -2.19308 -1.81091
thorax -11.4924 -1.35611 -1.90369
lowerneck 0.837758 -17.9713 -17.2049
upperneck 25.9149 -31.1412 15.9859
head 14.1577 -15.0137 3.82461
rclavicle 1.07095e-014 -2.42517e-014
rhumerus 405.379 79.0118 -368.106
rradius 97.9445
rwrist -48.5825
rhand 15.0082 4.68576
rfingers 7.12502
rthumb 39.8594 -20.5826
lclavicle 1.07095e-014 -2.42517e-014
lhumerus 67.0088 -76.309 -26.5816
lradius 94.1048
lwrist 48.6454
lhand 20.8431 22.2237
lfingers 7.12502
lthumb 45.3196 45.5963
rfemur -21.5936 9.8216 28.8624
rtibia 27.2536
rfoot 9.05115 -16.2122
rtoes 48.2786
lfemur -66.0558 37.4186 -30.7534
ltibia 64.6789
lfoot 28.2176 13.3503
ltoes -8.21596
794
root -1.09368 18.2809 9.59275 -710.747 -76.9371 -351.634
lowerback 0.242289 -1.12931 0.216333
upperback -10.1275 -2.05822 -2.14557
thorax -11.018 -1.29636 -2.19439
lowerneck 0.31779 -17.5313 -16.4027
upperneck 26.2444 -30.6888 16.138
head 14.1948 -14.7279 3.85527
rclavicle 5.86415e-015 -9.93923e-015
rhumerus 406.428 78.5716 -366.902
rradius 99.043
rwrist -48.3644
rhand 14.3998 5.43212
rfingers 7.12502
rthumb 39.2864 -20.0053
lclavicle 5.86415e-015 -9.93923e-015
lhumerus 66.5091 -76.128 -27.903
lradius 95.1799
lwrist 48.6584
lhand 21.5603 21.2989
lfingers 7.12502
lthumb 45.9857 44.3994
rfemur -21.1745 8.75045 28.6998
rtibia 27.3398
rfoot 9.34806 -15.4912
rtoes 46.896
lfemur -63.1802 36.1222 -29.6645
ltibia 61.5751
lfoot 25.4382 13.0242
ltoes -4.96303
795
root -1.11612 18.2501 9.64058 -707.566 -80.0361 -354.782
lowerback -0.0516697 -0.848344 0.843923
upperback -10.1486 -1.65165 -2.13648
thorax -10.8646 -1.16059 -2.57969
lowerneck -0.105343 -17.1502 -15.3499
upperneck 26.6355 -30.2528 15.9591
head 14.1247 -14.4578 3.74471
rclavicle 1.49089e-014 1.74931e-014
rhumerus 406.028 78.2746 -367.483
rradius 99.5763
rwrist -48.4499
rhand 13.0861 6.52452
rfingers 7.12502
rthumb 38.0472 -19.2619
lclavicle 1.49089e-014 1.74931e-014
lhumerus 68.2969 -76.0436 -31.2047
lradius 96.4774
lwrist 49.1725
lhand 21.5792 21.2893
lfingers 7.12502
lthumb 46.0033 44.3825
rfemur -21.0237 8.25125 29.7537
rtibia 27.3945
rfoot 9.60907 -15.2326
rtoes 45.4382
lfemur -61.0836 34.7745 -27.4124
ltibia 58.622
lfoot 23.5901 12.5749
ltoes -3.42441
796
root -1.13749 18.1942 9.68772 -691.265 -82.4012 -370.804
lowerback -0.521559 -0.342851 2.71271
upperback -10.3551 -0.835114 -1.57305
thorax -10.797 -0.909171 -3.09994
lowerneck -0.172235 -16.913 -14.7752
upperneck 26.8356 -29.9236 15.6756
head 13.9893 -14.2996 3.65681
rclavicle 1.2921e-014 7.95139e-015
rhumerus 404.36 78.1619 -369.904
rradius 98.6824
rwrist -48.6899
rhand 15.1042 5.54277
rfingers 7.12502
rthumb 39.9497 -19.6984
lclavicle 1.2921e-014 7.95139e-015
lhumerus 71.3895 -75.8493 -34.8669
lradius 97.6069
lwrist 49.5239
lhand 21.843 21.7953
lfingers 7.12502
lthumb 46.2479 44.7859
rfemur -21.0297 7.86969 32.3105
rtibia 27.1595
rfoot 9.55112 -15.6777
rtoes 45.0448
lfemur -59.7338 33.2023 -23.6954
ltibia 56.0179
lfoot 21.5318 12.6441
ltoes 0.234599
